# xmcd
#
# Track frame offsets:
#  180
#  13191
#  26038
#  38643
#  52954
#  68117
#  81723
#  94464
#  107943
#  120498
#  135388
#  149090
#  165718
#  179503
#  193351
#  205044
#  219397
#  232773
#  246819
#  261379
#  274116
#  286567
#  299586
#  315017
#
# Disc length: 4367 seconds
#
# Revision: 2
# Processed by: cddbd v1.5.1PL2 Copyright (c) Steve Scherf et al.
# Submitted via: Collectorz.com_Music_Collector 6.11
#
DISCID=6b110d18
DTITLE=Various Artist - Blues Fireworks
DYEAR=1995
DGENRE=Blues
TTITLE0=M. Merriweather - County Jail Blues
TTITLE1=A. Blake - Police Dog Blues
TTITLE2=W.L.C. Broonzy - I Feel So Good
TTITLE3=Leroy Carr - Midnight Hour Blues
TTITLE4=W. Weldon - Blues Everywhere I Go
TTITLE5=J.A. Estes - Someday Baby
TTITLE6=F. Allen - Shake It Baby
TTITLE7=W.L.C. Broonzy - My Mellow Man
TTITLE8=L. Jefferson - One Dime Blues
TTITLE9=Lonnie Johnson - He's A Jelly-Roll Baker
TTITLE10=Robert Johnson - Sweet Home Chicago
TTITLE11=Tommy Johnson - Canned Heat Blues
TTITLE12=Curtis Jones - Decoration Day Blues
TTITLE13=Willie McTell - Georgia Rag
TTITLE14=M. Douglas - McCoy - In My Girlish Days
TTITLE15=Peter Chatman - J. Williams - Grinder Man Blues
TTITLE16=E. Montgomery - Vicksburg Blues
TTITLE17=Charley Patton - Shake It And Break It (But Don't Let It Fall Mama)
TTITLE18=Traditional - 'tain't Nobody's Business If I Do
TTITLE19=H. Whittaker - Mean Mistreater Blues
TTITLE20=C. Jordan - Love Bug Blues
TTITLE21=Georgia White - Your Worries Ain't Like Mine
TTITLE22=Joe Williams - Baby Please Don't Go
TTITLE23=John Lee Williamson - Train Fare Blues
EXTD=
EXTT0=
EXTT1=
EXTT2=
EXTT3=
EXTT4=
EXTT5=
EXTT6=
EXTT7=
EXTT8=
EXTT9=
EXTT10=
EXTT11=
EXTT12=
EXTT13=
EXTT14=
EXTT15=
EXTT16=
EXTT17=
EXTT18=
EXTT19=
EXTT20=
EXTT21=
EXTT22=
EXTT23=
PLAYORDER=
